<svg width="1024" height="753" viewBox="0 0 1024 753" fill="none" xmlns="http://www.w3.org/2000/svg">
<g opacity="0.2" filter="url(#filter0_f_175_198)">
<ellipse cx="512.5" cy="38" rx="670.5" ry="350" fill="#B3A659"/>
</g>
<path d="M33.0349 274C34.5302 274 35.6622 274.63 36.4308 275.891C37.2134 277.138 37.6047 278.953 37.6047 281.336C37.6047 283.719 37.2134 285.541 36.4308 286.802C35.6622 288.063 34.5302 288.693 33.0349 288.693C31.5536 288.693 30.4216 288.063 29.639 286.802C28.8564 285.541 28.4651 283.719 28.4651 281.336C28.4651 278.967 28.8564 277.152 29.639 275.891C30.4216 274.63 31.5536 274 33.0349 274ZM29.9534 281.336C29.9534 283.026 30.1072 284.35 30.4146 285.306L35.0683 276.099C34.5791 275.448 33.9013 275.122 33.0349 275.122C32.0706 275.122 31.316 275.635 30.771 276.66C30.2259 277.672 29.9534 279.23 29.9534 281.336ZM33.0349 287.55C34.0131 287.55 34.7748 287.044 35.3198 286.033C35.8648 285.008 36.1373 283.442 36.1373 281.336C36.1373 279.549 35.9627 278.163 35.6133 277.18L30.9596 286.469C31.4627 287.19 32.1545 287.55 33.0349 287.55Z" fill="url(#paint0_linear_175_198)" fill-opacity="0.6"/>
<path d="M34.2926 311.135H37.3741V312.236H29.3874V311.135H32.9511V299.455L29.5551 301.471L28.9682 300.536L33.1607 297.959H34.2926V311.135Z" fill="url(#paint1_linear_175_198)" fill-opacity="0.6"/>
<path d="M33.0349 321.502C34.5302 321.502 35.6622 322.133 36.4308 323.393C37.2134 324.64 37.6047 326.455 37.6047 328.838C37.6047 331.221 37.2134 333.043 36.4308 334.304C35.6622 335.565 34.5302 336.195 33.0349 336.195C31.5536 336.195 30.4216 335.565 29.639 334.304C28.8564 333.043 28.4651 331.221 28.4651 328.838C28.4651 326.469 28.8564 324.654 29.639 323.393C30.4216 322.133 31.5536 321.502 33.0349 321.502ZM29.9534 328.838C29.9534 330.529 30.1072 331.852 30.4146 332.808L35.0683 323.601C34.5791 322.95 33.9013 322.624 33.0349 322.624C32.0706 322.624 31.316 323.137 30.771 324.162C30.2259 325.174 29.9534 326.732 29.9534 328.838ZM33.0349 335.052C34.0131 335.052 34.7748 334.546 35.3198 333.535C35.8648 332.51 36.1373 330.944 36.1373 328.838C36.1373 327.051 35.9627 325.665 35.6133 324.682L30.9596 333.971C31.4627 334.692 32.1545 335.052 33.0349 335.052Z" fill="url(#paint2_linear_175_198)" fill-opacity="0.6"/>
<path d="M34.2926 358.637H37.3741V359.738H29.3874V358.637H32.9511V346.957L29.5551 348.973L28.9682 348.038L33.1607 345.461H34.2926V358.637Z" fill="url(#paint3_linear_175_198)" fill-opacity="0.6"/>
<path d="M34.2926 382.388H37.3741V383.489H29.3874V382.388H32.9511V370.708L29.5551 372.724L28.9682 371.789L33.1607 369.212H34.2926V382.388Z" fill="url(#paint4_linear_175_198)" fill-opacity="0.6"/>
<path d="M33.0349 392.755C34.5302 392.755 35.6622 393.386 36.4308 394.646C37.2134 395.893 37.6047 397.708 37.6047 400.091C37.6047 402.474 37.2134 404.296 36.4308 405.557C35.6622 406.818 34.5302 407.448 33.0349 407.448C31.5536 407.448 30.4216 406.818 29.639 405.557C28.8564 404.296 28.4651 402.474 28.4651 400.091C28.4651 397.722 28.8564 395.907 29.639 394.646C30.4216 393.386 31.5536 392.755 33.0349 392.755ZM29.9534 400.091C29.9534 401.782 30.1072 403.105 30.4146 404.061L35.0683 394.854C34.5791 394.203 33.9013 393.878 33.0349 393.878C32.0706 393.878 31.316 394.39 30.771 395.415C30.2259 396.427 29.9534 397.985 29.9534 400.091ZM33.0349 406.305C34.0131 406.305 34.7748 405.8 35.3198 404.788C35.8648 403.763 36.1373 402.197 36.1373 400.091C36.1373 398.304 35.9627 396.919 35.6133 395.935L30.9596 405.225C31.4627 405.945 32.1545 406.305 33.0349 406.305Z" fill="url(#paint5_linear_175_198)" fill-opacity="0.6"/>
<path d="M34.2926 429.89H37.3741V430.992H29.3874V429.89H32.9511V418.21L29.5551 420.226L28.9682 419.291L33.1607 416.714H34.2926V429.89Z" fill="url(#paint6_linear_175_198)" fill-opacity="0.6"/>
<path d="M33.0349 440.257C34.5302 440.257 35.6622 440.888 36.4308 442.149C37.2134 443.396 37.6047 445.211 37.6047 447.594C37.6047 449.977 37.2134 451.798 36.4308 453.059C35.6622 454.32 34.5302 454.95 33.0349 454.95C31.5536 454.95 30.4216 454.32 29.639 453.059C28.8564 451.798 28.4651 449.977 28.4651 447.594C28.4651 445.224 28.8564 443.409 29.639 442.149C30.4216 440.888 31.5536 440.257 33.0349 440.257ZM29.9534 447.594C29.9534 449.284 30.1072 450.607 30.4146 451.563L35.0683 442.356C34.5791 441.705 33.9013 441.38 33.0349 441.38C32.0706 441.38 31.316 441.892 30.771 442.918C30.2259 443.929 29.9534 445.488 29.9534 447.594ZM33.0349 453.807C34.0131 453.807 34.7748 453.302 35.3198 452.29C35.8648 451.265 36.1373 449.699 36.1373 447.594C36.1373 445.806 35.9627 444.421 35.6133 443.437L30.9596 452.727C31.4627 453.447 32.1545 453.807 33.0349 453.807Z" fill="url(#paint7_linear_175_198)" fill-opacity="0.6"/>
<path d="M33.0349 464.008C34.5302 464.008 35.6622 464.639 36.4308 465.9C37.2134 467.147 37.6047 468.962 37.6047 471.345C37.6047 473.728 37.2134 475.549 36.4308 476.81C35.6622 478.071 34.5302 478.701 33.0349 478.701C31.5536 478.701 30.4216 478.071 29.639 476.81C28.8564 475.549 28.4651 473.728 28.4651 471.345C28.4651 468.975 28.8564 467.16 29.639 465.9C30.4216 464.639 31.5536 464.008 33.0349 464.008ZM29.9534 471.345C29.9534 473.035 30.1072 474.358 30.4146 475.314L35.0683 466.107C34.5791 465.456 33.9013 465.131 33.0349 465.131C32.0706 465.131 31.316 465.643 30.771 466.669C30.2259 467.68 29.9534 469.239 29.9534 471.345ZM33.0349 477.558C34.0131 477.558 34.7748 477.053 35.3198 476.041C35.8648 475.016 36.1373 473.451 36.1373 471.345C36.1373 469.557 35.9627 468.172 35.6133 467.188L30.9596 476.478C31.4627 477.198 32.1545 477.558 33.0349 477.558Z" fill="url(#paint8_linear_175_198)" fill-opacity="0.6"/>
<path d="M34.2926 501.143H37.3741V502.245H29.3874V501.143H32.9511V489.464L29.5551 491.48L28.9682 490.544L33.1607 487.967H34.2926V501.143Z" fill="url(#paint9_linear_175_198)" fill-opacity="0.6"/>
<path d="M33.0349 511.511C34.5302 511.511 35.6622 512.141 36.4308 513.402C37.2134 514.649 37.6047 516.464 37.6047 518.847C37.6047 521.23 37.2134 523.052 36.4308 524.312C35.6622 525.573 34.5302 526.204 33.0349 526.204C31.5536 526.204 30.4216 525.573 29.639 524.312C28.8564 523.052 28.4651 521.23 28.4651 518.847C28.4651 516.478 28.8564 514.663 29.639 513.402C30.4216 512.141 31.5536 511.511 33.0349 511.511ZM29.9534 518.847C29.9534 520.537 30.1072 521.86 30.4146 522.816L35.0683 513.61C34.5791 512.958 33.9013 512.633 33.0349 512.633C32.0706 512.633 31.316 513.145 30.771 514.171C30.2259 515.182 29.9534 516.741 29.9534 518.847ZM33.0349 525.061C34.0131 525.061 34.7748 524.555 35.3198 523.543C35.8648 522.518 36.1373 520.953 36.1373 518.847C36.1373 517.059 35.9627 515.674 35.6133 514.69L30.9596 523.98C31.4627 524.7 32.1545 525.061 33.0349 525.061Z" fill="url(#paint10_linear_175_198)" fill-opacity="0.6"/>
<path d="M34.2926 548.645H37.3741V549.747H29.3874V548.645H32.9511V536.966L29.5551 538.982L28.9682 538.046L33.1607 535.469H34.2926V548.645Z" fill="url(#paint11_linear_175_198)" fill-opacity="0.6"/>
<path d="M34.2926 572.396H37.3741V573.498H29.3874V572.396H32.9511V560.717L29.5551 562.733L28.9682 561.798L33.1607 559.221H34.2926V572.396Z" fill="url(#paint12_linear_175_198)" fill-opacity="0.6"/>
<path d="M71.9651 321.502C73.4604 321.502 74.5924 322.133 75.361 323.393C76.1436 324.64 76.5349 326.455 76.5349 328.838C76.5349 331.221 76.1436 333.043 75.361 334.304C74.5924 335.565 73.4604 336.195 71.9651 336.195C70.4838 336.195 69.3518 335.565 68.5692 334.304C67.7866 333.043 67.3953 331.221 67.3953 328.838C67.3953 326.469 67.7866 324.654 68.5692 323.393C69.3518 322.133 70.4838 321.502 71.9651 321.502ZM68.8836 328.838C68.8836 330.529 69.0374 331.852 69.3448 332.808L73.9985 323.601C73.5093 322.95 72.8315 322.624 71.9651 322.624C71.0008 322.624 70.2462 323.137 69.7012 324.162C69.1561 325.174 68.8836 326.732 68.8836 328.838ZM71.9651 335.052C72.9433 335.052 73.705 334.546 74.25 333.535C74.795 332.51 75.0675 330.944 75.0675 328.838C75.0675 327.051 74.8928 325.665 74.5435 324.682L69.8898 333.971C70.3929 334.692 71.0847 335.052 71.9651 335.052Z" fill="url(#paint13_linear_175_198)" fill-opacity="0.6"/>
<path d="M73.2228 358.637H76.3043V359.738H68.3176V358.637H71.8812V346.957L68.4853 348.973L67.8984 348.038L72.0909 345.461H73.2228V358.637Z" fill="url(#paint14_linear_175_198)" fill-opacity="0.6"/>
<path d="M71.9651 369.004C73.4604 369.004 74.5924 369.635 75.361 370.895C76.1436 372.142 76.5349 373.957 76.5349 376.34C76.5349 378.723 76.1436 380.545 75.361 381.806C74.5924 383.067 73.4604 383.697 71.9651 383.697C70.4838 383.697 69.3518 383.067 68.5692 381.806C67.7866 380.545 67.3953 378.723 67.3953 376.34C67.3953 373.971 67.7866 372.156 68.5692 370.895C69.3518 369.635 70.4838 369.004 71.9651 369.004ZM68.8836 376.34C68.8836 378.031 69.0374 379.354 69.3448 380.31L73.9985 371.103C73.5093 370.452 72.8315 370.126 71.9651 370.126C71.0008 370.126 70.2462 370.639 69.7012 371.664C69.1561 372.676 68.8836 374.234 68.8836 376.34ZM71.9651 382.554C72.9433 382.554 73.705 382.049 74.25 381.037C74.795 380.012 75.0675 378.446 75.0675 376.34C75.0675 374.553 74.8928 373.168 74.5435 372.184L69.8898 381.474C70.3929 382.194 71.0847 382.554 71.9651 382.554Z" fill="url(#paint15_linear_175_198)" fill-opacity="0.6"/>
<path d="M71.9651 392.755C73.4604 392.755 74.5924 393.386 75.361 394.646C76.1436 395.893 76.5349 397.708 76.5349 400.091C76.5349 402.474 76.1436 404.296 75.361 405.557C74.5924 406.818 73.4604 407.448 71.9651 407.448C70.4838 407.448 69.3518 406.818 68.5692 405.557C67.7866 404.296 67.3953 402.474 67.3953 400.091C67.3953 397.722 67.7866 395.907 68.5692 394.646C69.3518 393.386 70.4838 392.755 71.9651 392.755ZM68.8836 400.091C68.8836 401.782 69.0374 403.105 69.3448 404.061L73.9985 394.854C73.5093 394.203 72.8315 393.878 71.9651 393.878C71.0008 393.878 70.2462 394.39 69.7012 395.415C69.1561 396.427 68.8836 397.985 68.8836 400.091ZM71.9651 406.305C72.9433 406.305 73.705 405.8 74.25 404.788C74.795 403.763 75.0675 402.197 75.0675 400.091C75.0675 398.304 74.8928 396.919 74.5435 395.935L69.8898 405.225C70.3929 405.945 71.0847 406.305 71.9651 406.305Z" fill="url(#paint16_linear_175_198)" fill-opacity="0.6"/>
<path d="M73.2228 429.89H76.3043V430.992H68.3176V429.89H71.8812V418.21L68.4853 420.226L67.8984 419.291L72.0909 416.714H73.2228V429.89Z" fill="url(#paint17_linear_175_198)" fill-opacity="0.6"/>
<path d="M71.9651 440.257C73.4604 440.257 74.5924 440.888 75.361 442.149C76.1436 443.396 76.5349 445.211 76.5349 447.594C76.5349 449.977 76.1436 451.798 75.361 453.059C74.5924 454.32 73.4604 454.95 71.9651 454.95C70.4838 454.95 69.3518 454.32 68.5692 453.059C67.7866 451.798 67.3953 449.977 67.3953 447.594C67.3953 445.224 67.7866 443.409 68.5692 442.149C69.3518 440.888 70.4838 440.257 71.9651 440.257ZM68.8836 447.594C68.8836 449.284 69.0374 450.607 69.3448 451.563L73.9985 442.356C73.5093 441.705 72.8315 441.38 71.9651 441.38C71.0008 441.38 70.2462 441.892 69.7012 442.918C69.1561 443.929 68.8836 445.488 68.8836 447.594ZM71.9651 453.807C72.9433 453.807 73.705 453.302 74.25 452.29C74.795 451.265 75.0675 449.699 75.0675 447.594C75.0675 445.806 74.8928 444.421 74.5435 443.437L69.8898 452.727C70.3929 453.447 71.0847 453.807 71.9651 453.807Z" fill="url(#paint18_linear_175_198)" fill-opacity="0.6"/>
<path d="M73.2228 477.392H76.3043V478.494H68.3176V477.392H71.8812V465.713L68.4853 467.728L67.8984 466.793L72.0909 464.216H73.2228V477.392Z" fill="url(#paint19_linear_175_198)" fill-opacity="0.6"/>
<path d="M71.9651 487.76C73.4604 487.76 74.5924 488.39 75.361 489.651C76.1436 490.898 76.5349 492.713 76.5349 495.096C76.5349 497.479 76.1436 499.301 75.361 500.561C74.5924 501.822 73.4604 502.453 71.9651 502.453C70.4838 502.453 69.3518 501.822 68.5692 500.561C67.7866 499.301 67.3953 497.479 67.3953 495.096C67.3953 492.726 67.7866 490.911 68.5692 489.651C69.3518 488.39 70.4838 487.76 71.9651 487.76ZM68.8836 495.096C68.8836 496.786 69.0374 498.109 69.3448 499.065L73.9985 489.859C73.5093 489.207 72.8315 488.882 71.9651 488.882C71.0008 488.882 70.2462 489.394 69.7012 490.42C69.1561 491.431 68.8836 492.99 68.8836 495.096ZM71.9651 501.31C72.9433 501.31 73.705 500.804 74.25 499.792C74.795 498.767 75.0675 497.202 75.0675 495.096C75.0675 493.308 74.8928 491.923 74.5435 490.939L69.8898 500.229C70.3929 500.949 71.0847 501.31 71.9651 501.31Z" fill="url(#paint20_linear_175_198)" fill-opacity="0.6"/>
<path d="M71.9651 511.511C73.4604 511.511 74.5924 512.141 75.361 513.402C76.1436 514.649 76.5349 516.464 76.5349 518.847C76.5349 521.23 76.1436 523.052 75.361 524.312C74.5924 525.573 73.4604 526.204 71.9651 526.204C70.4838 526.204 69.3518 525.573 68.5692 524.312C67.7866 523.052 67.3953 521.23 67.3953 518.847C67.3953 516.478 67.7866 514.663 68.5692 513.402C69.3518 512.141 70.4838 511.511 71.9651 511.511ZM68.8836 518.847C68.8836 520.537 69.0374 521.86 69.3448 522.816L73.9985 513.61C73.5093 512.958 72.8315 512.633 71.9651 512.633C71.0008 512.633 70.2462 513.145 69.7012 514.171C69.1561 515.182 68.8836 516.741 68.8836 518.847ZM71.9651 525.061C72.9433 525.061 73.705 524.555 74.25 523.543C74.795 522.518 75.0675 520.953 75.0675 518.847C75.0675 517.059 74.8928 515.674 74.5435 514.69L69.8898 523.98C70.3929 524.7 71.0847 525.061 71.9651 525.061Z" fill="url(#paint21_linear_175_198)" fill-opacity="0.6"/>
<path d="M73.2228 548.645H76.3043V549.747H68.3176V548.645H71.8812V536.966L68.4853 538.982L67.8984 538.046L72.0909 535.469H73.2228V548.645Z" fill="url(#paint22_linear_175_198)" fill-opacity="0.6"/>
<path d="M71.9651 559.013C73.4604 559.013 74.5924 559.643 75.361 560.904C76.1436 562.151 76.5349 563.966 76.5349 566.349C76.5349 568.732 76.1436 570.554 75.361 571.815C74.5924 573.075 73.4604 573.706 71.9651 573.706C70.4838 573.706 69.3518 573.075 68.5692 571.815C67.7866 570.554 67.3953 568.732 67.3953 566.349C67.3953 563.98 67.7866 562.165 68.5692 560.904C69.3518 559.643 70.4838 559.013 71.9651 559.013ZM68.8836 566.349C68.8836 568.039 69.0374 569.362 69.3448 570.318L73.9985 561.112C73.5093 560.461 72.8315 560.135 71.9651 560.135C71.0008 560.135 70.2462 560.648 69.7012 561.673C69.1561 562.684 68.8836 564.243 68.8836 566.349ZM71.9651 572.563C72.9433 572.563 73.705 572.057 74.25 571.046C74.795 570.02 75.0675 568.455 75.0675 566.349C75.0675 564.562 74.8928 563.176 74.5435 562.192L69.8898 571.482C70.3929 572.202 71.0847 572.563 71.9651 572.563Z" fill="url(#paint23_linear_175_198)" fill-opacity="0.6"/>
<path d="M73.2228 596.148H76.3043V597.249H68.3176V596.148H71.8812V584.468L68.4853 586.484L67.8984 585.549L72.0909 582.972H73.2228V596.148Z" fill="url(#paint24_linear_175_198)" fill-opacity="0.6"/>
<path d="M73.2228 619.899H76.3043V621H68.3176V619.899H71.8812V608.219L68.4853 610.235L67.8984 609.3L72.0909 606.723H73.2228V619.899Z" fill="url(#paint25_linear_175_198)" fill-opacity="0.6"/>
<path d="M13.5698 345.253C15.0651 345.253 16.1971 345.884 16.9657 347.144C17.7483 348.391 18.1396 350.206 18.1396 352.589C18.1396 354.972 17.7483 356.794 16.9657 358.055C16.1971 359.316 15.0651 359.946 13.5698 359.946C12.0885 359.946 10.9565 359.316 10.1739 358.055C9.3913 356.794 9 354.972 9 352.589C9 350.22 9.3913 348.405 10.1739 347.144C10.9565 345.884 12.0885 345.253 13.5698 345.253ZM10.4883 352.589C10.4883 354.28 10.6421 355.603 10.9495 356.559L15.6032 347.352C15.114 346.701 14.4363 346.375 13.5698 346.375C12.6055 346.375 11.8509 346.888 11.3059 347.913C10.7608 348.925 10.4883 350.483 10.4883 352.589ZM13.5698 358.803C14.5481 358.803 15.3097 358.297 15.8547 357.286C16.3997 356.261 16.6722 354.695 16.6722 352.589C16.6722 350.802 16.4976 349.417 16.1482 348.433L11.4945 357.722C11.9976 358.443 12.6894 358.803 13.5698 358.803Z" fill="url(#paint26_linear_175_198)" fill-opacity="0.6"/>
<path d="M13.5698 369.004C15.0651 369.004 16.1971 369.635 16.9657 370.895C17.7483 372.142 18.1396 373.957 18.1396 376.34C18.1396 378.723 17.7483 380.545 16.9657 381.806C16.1971 383.067 15.0651 383.697 13.5698 383.697C12.0885 383.697 10.9565 383.067 10.1739 381.806C9.3913 380.545 9 378.723 9 376.34C9 373.971 9.3913 372.156 10.1739 370.895C10.9565 369.635 12.0885 369.004 13.5698 369.004ZM10.4883 376.34C10.4883 378.031 10.6421 379.354 10.9495 380.31L15.6032 371.103C15.114 370.452 14.4363 370.126 13.5698 370.126C12.6055 370.126 11.8509 370.639 11.3059 371.664C10.7608 372.676 10.4883 374.234 10.4883 376.34ZM13.5698 382.554C14.5481 382.554 15.3097 382.049 15.8547 381.037C16.3997 380.012 16.6722 378.446 16.6722 376.34C16.6722 374.553 16.4976 373.168 16.1482 372.184L11.4945 381.474C11.9976 382.194 12.6894 382.554 13.5698 382.554Z" fill="url(#paint27_linear_175_198)" fill-opacity="0.6"/>
<path d="M14.8276 406.139H17.909V407.24H9.92235V406.139H13.486V394.459L10.09 396.475L9.5031 395.54L13.6956 392.963H14.8276V406.139Z" fill="url(#paint28_linear_175_198)" fill-opacity="0.6"/>
<path d="M13.5698 416.506C15.0651 416.506 16.1971 417.137 16.9657 418.398C17.7483 419.644 18.1396 421.459 18.1396 423.842C18.1396 426.225 17.7483 428.047 16.9657 429.308C16.1971 430.569 15.0651 431.199 13.5698 431.199C12.0885 431.199 10.9565 430.569 10.1739 429.308C9.3913 428.047 9 426.225 9 423.842C9 421.473 9.3913 419.658 10.1739 418.398C10.9565 417.137 12.0885 416.506 13.5698 416.506ZM10.4883 423.842C10.4883 425.533 10.6421 426.856 10.9495 427.812L15.6032 418.605C15.114 417.954 14.4363 417.629 13.5698 417.629C12.6055 417.629 11.8509 418.141 11.3059 419.166C10.7608 420.178 10.4883 421.737 10.4883 423.842ZM13.5698 430.056C14.5481 430.056 15.3097 429.551 15.8547 428.539C16.3997 427.514 16.6722 425.948 16.6722 423.842C16.6722 422.055 16.4976 420.67 16.1482 419.686L11.4945 428.976C11.9976 429.696 12.6894 430.056 13.5698 430.056Z" fill="url(#paint29_linear_175_198)" fill-opacity="0.6"/>
<path d="M14.8276 453.641H17.909V454.743H9.92235V453.641H13.486V441.962L10.09 443.977L9.5031 443.042L13.6956 440.465H14.8276V453.641Z" fill="url(#paint30_linear_175_198)" fill-opacity="0.6"/>
<path d="M14.8276 477.392H17.909V478.494H9.92235V477.392H13.486V465.713L10.09 467.728L9.5031 466.793L13.6956 464.216H14.8276V477.392Z" fill="url(#paint31_linear_175_198)" fill-opacity="0.6"/>
<path d="M53.7577 311.135H56.8392V312.236H48.8525V311.135H52.4162V299.455L49.0202 301.471L48.4333 300.536L52.6258 297.959H53.7577V311.135Z" fill="url(#paint32_linear_175_198)" fill-opacity="0.6"/>
<path d="M52.5 321.502C53.9953 321.502 55.1273 322.133 55.8959 323.393C56.6785 324.64 57.0698 326.455 57.0698 328.838C57.0698 331.221 56.6785 333.043 55.8959 334.304C55.1273 335.565 53.9953 336.195 52.5 336.195C51.0187 336.195 49.8867 335.565 49.1041 334.304C48.3215 333.043 47.9302 331.221 47.9302 328.838C47.9302 326.469 48.3215 324.654 49.1041 323.393C49.8867 322.133 51.0187 321.502 52.5 321.502ZM49.4185 328.838C49.4185 330.529 49.5723 331.852 49.8797 332.808L54.5334 323.601C54.0442 322.95 53.3664 322.624 52.5 322.624C51.5357 322.624 50.7811 323.137 50.2361 324.162C49.691 325.174 49.4185 326.732 49.4185 328.838ZM52.5 335.052C53.4782 335.052 54.2399 334.546 54.7849 333.535C55.3299 332.51 55.6024 330.944 55.6024 328.838C55.6024 327.051 55.4277 325.665 55.0784 324.682L50.4247 333.971C50.9278 334.692 51.6196 335.052 52.5 335.052Z" fill="url(#paint33_linear_175_198)" fill-opacity="0.6"/>
<path d="M53.7577 358.637H56.8392V359.738H48.8525V358.637H52.4162V346.957L49.0202 348.973L48.4333 348.038L52.6258 345.461H53.7577V358.637Z" fill="url(#paint34_linear_175_198)" fill-opacity="0.6"/>
<path d="M53.7577 382.388H56.8392V383.489H48.8525V382.388H52.4162V370.708L49.0202 372.724L48.4333 371.789L52.6258 369.212H53.7577V382.388Z" fill="url(#paint35_linear_175_198)" fill-opacity="0.6"/>
<path d="M52.5 392.755C53.9953 392.755 55.1273 393.386 55.8959 394.646C56.6785 395.893 57.0698 397.708 57.0698 400.091C57.0698 402.474 56.6785 404.296 55.8959 405.557C55.1273 406.818 53.9953 407.448 52.5 407.448C51.0187 407.448 49.8867 406.818 49.1041 405.557C48.3215 404.296 47.9302 402.474 47.9302 400.091C47.9302 397.722 48.3215 395.907 49.1041 394.646C49.8867 393.386 51.0187 392.755 52.5 392.755ZM49.4185 400.091C49.4185 401.782 49.5723 403.105 49.8797 404.061L54.5334 394.854C54.0442 394.203 53.3664 393.878 52.5 393.878C51.5357 393.878 50.7811 394.39 50.2361 395.415C49.691 396.427 49.4185 397.985 49.4185 400.091ZM52.5 406.305C53.4782 406.305 54.2399 405.8 54.7849 404.788C55.3299 403.763 55.6024 402.197 55.6024 400.091C55.6024 398.304 55.4277 396.919 55.0784 395.935L50.4247 405.225C50.9278 405.945 51.6196 406.305 52.5 406.305Z" fill="url(#paint36_linear_175_198)" fill-opacity="0.6"/>
<path d="M53.7577 429.89H56.8392V430.992H48.8525V429.89H52.4162V418.21L49.0202 420.226L48.4333 419.291L52.6258 416.714H53.7577V429.89Z" fill="url(#paint37_linear_175_198)" fill-opacity="0.6"/>
<path d="M53.7577 453.641H56.8392V454.743H48.8525V453.641H52.4162V441.962L49.0202 443.977L48.4333 443.042L52.6258 440.465H53.7577V453.641Z" fill="url(#paint38_linear_175_198)" fill-opacity="0.6"/>
<path d="M52.5 464.008C53.9953 464.008 55.1273 464.639 55.8959 465.9C56.6785 467.147 57.0698 468.962 57.0698 471.345C57.0698 473.728 56.6785 475.549 55.8959 476.81C55.1273 478.071 53.9953 478.701 52.5 478.701C51.0187 478.701 49.8867 478.071 49.1041 476.81C48.3215 475.549 47.9302 473.728 47.9302 471.345C47.9302 468.975 48.3215 467.16 49.1041 465.9C49.8867 464.639 51.0187 464.008 52.5 464.008ZM49.4185 471.345C49.4185 473.035 49.5723 474.358 49.8797 475.314L54.5334 466.107C54.0442 465.456 53.3664 465.131 52.5 465.131C51.5357 465.131 50.7811 465.643 50.2361 466.669C49.691 467.68 49.4185 469.239 49.4185 471.345ZM52.5 477.558C53.4782 477.558 54.2399 477.053 54.7849 476.041C55.3299 475.016 55.6024 473.451 55.6024 471.345C55.6024 469.557 55.4277 468.172 55.0784 467.188L50.4247 476.478C50.9278 477.198 51.6196 477.558 52.5 477.558Z" fill="url(#paint39_linear_175_198)" fill-opacity="0.6"/>
<path d="M53.7577 501.143H56.8392V502.245H48.8525V501.143H52.4162V489.464L49.0202 491.48L48.4333 490.544L52.6258 487.967H53.7577V501.143Z" fill="url(#paint40_linear_175_198)" fill-opacity="0.6"/>
<path d="M52.5 511.511C53.9953 511.511 55.1273 512.141 55.8959 513.402C56.6785 514.649 57.0698 516.464 57.0698 518.847C57.0698 521.23 56.6785 523.052 55.8959 524.312C55.1273 525.573 53.9953 526.204 52.5 526.204C51.0187 526.204 49.8867 525.573 49.1041 524.312C48.3215 523.052 47.9302 521.23 47.9302 518.847C47.9302 516.478 48.3215 514.663 49.1041 513.402C49.8867 512.141 51.0187 511.511 52.5 511.511ZM49.4185 518.847C49.4185 520.537 49.5723 521.86 49.8797 522.816L54.5334 513.61C54.0442 512.958 53.3664 512.633 52.5 512.633C51.5357 512.633 50.7811 513.145 50.2361 514.171C49.691 515.182 49.4185 516.741 49.4185 518.847ZM52.5 525.061C53.4782 525.061 54.2399 524.555 54.7849 523.543C55.3299 522.518 55.6024 520.953 55.6024 518.847C55.6024 517.059 55.4277 515.674 55.0784 514.69L50.4247 523.98C50.9278 524.7 51.6196 525.061 52.5 525.061Z" fill="url(#paint41_linear_175_198)" fill-opacity="0.6"/>
<path d="M91.4302 297.751C92.9255 297.751 94.0575 298.381 94.8261 299.642C95.6087 300.889 96 302.704 96 305.087C96 307.47 95.6087 309.292 94.8261 310.553C94.0575 311.814 92.9255 312.444 91.4302 312.444C89.9489 312.444 88.8169 311.814 88.0343 310.553C87.2517 309.292 86.8604 307.47 86.8604 305.087C86.8604 302.718 87.2517 300.903 88.0343 299.642C88.8169 298.381 89.9489 297.751 91.4302 297.751ZM88.3487 305.087C88.3487 306.777 88.5024 308.101 88.8099 309.057L93.4636 299.85C92.9744 299.199 92.2966 298.873 91.4302 298.873C90.4659 298.873 89.7113 299.386 89.1663 300.411C88.6212 301.423 88.3487 302.981 88.3487 305.087ZM91.4302 311.301C92.4084 311.301 93.1701 310.795 93.7151 309.784C94.2601 308.759 94.5326 307.193 94.5326 305.087C94.5326 303.3 94.3579 301.914 94.0086 300.931L89.3549 310.22C89.858 310.941 90.5498 311.301 91.4302 311.301Z" fill="url(#paint42_linear_175_198)" fill-opacity="0.6"/>
<path d="M92.6879 334.886H95.7694V335.987H87.7827V334.886H91.3463V323.206L87.9504 325.222L87.3635 324.287L91.556 321.71H92.6879V334.886Z" fill="url(#paint43_linear_175_198)" fill-opacity="0.6"/>
<path d="M92.6879 358.637H95.7694V359.738H87.7827V358.637H91.3463V346.957L87.9504 348.973L87.3635 348.038L91.556 345.461H92.6879V358.637Z" fill="url(#paint44_linear_175_198)" fill-opacity="0.6"/>
<path d="M91.4302 369.004C92.9255 369.004 94.0575 369.635 94.8261 370.895C95.6087 372.142 96 373.957 96 376.34C96 378.723 95.6087 380.545 94.8261 381.806C94.0575 383.067 92.9255 383.697 91.4302 383.697C89.9489 383.697 88.8169 383.067 88.0343 381.806C87.2517 380.545 86.8604 378.723 86.8604 376.34C86.8604 373.971 87.2517 372.156 88.0343 370.895C88.8169 369.635 89.9489 369.004 91.4302 369.004ZM88.3487 376.34C88.3487 378.031 88.5024 379.354 88.8099 380.31L93.4636 371.103C92.9744 370.452 92.2966 370.126 91.4302 370.126C90.4659 370.126 89.7113 370.639 89.1663 371.664C88.6212 372.676 88.3487 374.234 88.3487 376.34ZM91.4302 382.554C92.4084 382.554 93.1701 382.049 93.7151 381.037C94.2601 380.012 94.5326 378.446 94.5326 376.34C94.5326 374.553 94.3579 373.168 94.0086 372.184L89.3549 381.474C89.858 382.194 90.5498 382.554 91.4302 382.554Z" fill="url(#paint45_linear_175_198)" fill-opacity="0.6"/>
<path d="M91.4302 392.755C92.9255 392.755 94.0575 393.386 94.8261 394.646C95.6087 395.893 96 397.708 96 400.091C96 402.474 95.6087 404.296 94.8261 405.557C94.0575 406.818 92.9255 407.448 91.4302 407.448C89.9489 407.448 88.8169 406.818 88.0343 405.557C87.2517 404.296 86.8604 402.474 86.8604 400.091C86.8604 397.722 87.2517 395.907 88.0343 394.646C88.8169 393.386 89.9489 392.755 91.4302 392.755ZM88.3487 400.091C88.3487 401.782 88.5024 403.105 88.8099 404.061L93.4636 394.854C92.9744 394.203 92.2966 393.878 91.4302 393.878C90.4659 393.878 89.7113 394.39 89.1663 395.415C88.6212 396.427 88.3487 397.985 88.3487 400.091ZM91.4302 406.305C92.4084 406.305 93.1701 405.8 93.7151 404.788C94.2601 403.763 94.5326 402.197 94.5326 400.091C94.5326 398.304 94.3579 396.919 94.0086 395.935L89.3549 405.225C89.858 405.945 90.5498 406.305 91.4302 406.305Z" fill="url(#paint46_linear_175_198)" fill-opacity="0.6"/>
<g opacity="0.6">
<path d="M919.93 -26C921.356 -26 922.436 -25.395 923.17 -24.1851C923.916 -22.9885 924.29 -21.2468 924.29 -18.9599C924.29 -16.673 923.916 -14.9246 923.17 -13.7147C922.436 -12.5048 921.356 -11.8998 919.93 -11.8998C918.517 -11.8998 917.437 -12.5048 916.69 -13.7147C915.943 -14.9246 915.57 -16.673 915.57 -18.9599C915.57 -21.2335 915.943 -22.9752 916.69 -24.1851C917.437 -25.395 918.517 -26 919.93 -26ZM916.99 -18.9599C916.99 -17.3378 917.137 -16.068 917.43 -15.1506L921.87 -23.9857C921.403 -24.6106 920.756 -24.923 919.93 -24.923C919.01 -24.923 918.29 -24.4311 917.77 -23.4472C917.25 -22.4766 916.99 -20.9808 916.99 -18.9599ZM919.93 -12.9967C920.863 -12.9967 921.59 -13.482 922.11 -14.4526C922.63 -15.4365 922.89 -16.9389 922.89 -18.9599C922.89 -20.675 922.723 -22.0046 922.39 -22.9486L917.95 -14.0338C918.43 -13.3424 919.09 -12.9967 919.93 -12.9967Z" fill="url(#paint47_linear_175_198)"/>
<path d="M921.13 9.63655H924.07V10.6936H916.45V9.63655H919.85V-1.57181L916.61 0.362726L916.05 -0.534742L920.05 -3.00776H921.13V9.63655Z" fill="url(#paint48_linear_175_198)"/>
<path d="M919.93 19.5856C921.356 19.5856 922.436 20.1906 923.17 21.4005C923.916 22.5971 924.29 24.3389 924.29 26.6257C924.29 28.9126 923.916 30.661 923.17 31.8709C922.436 33.0808 921.356 33.6858 919.93 33.6858C918.517 33.6858 917.437 33.0808 916.69 31.8709C915.943 30.661 915.57 28.9126 915.57 26.6257C915.57 24.3522 915.943 22.6104 916.69 21.4005C917.437 20.1906 918.517 19.5856 919.93 19.5856ZM916.99 26.6257C916.99 28.2478 917.137 29.5176 917.43 30.435L921.87 21.5999C921.403 20.975 920.756 20.6626 919.93 20.6626C919.01 20.6626 918.29 21.1545 917.77 22.1384C917.25 23.109 916.99 24.6048 916.99 26.6257ZM919.93 32.5889C920.863 32.5889 921.59 32.1036 922.11 31.133C922.63 30.1491 922.89 28.6467 922.89 26.6257C922.89 24.9106 922.723 23.581 922.39 22.637L917.95 31.5518C918.43 32.2432 919.09 32.5889 919.93 32.5889Z" fill="url(#paint49_linear_175_198)"/>
<path d="M921.13 55.2221H924.07V56.2792H916.45V55.2221H919.85V44.0138L916.61 45.9483L916.05 45.0509L920.05 42.5778H921.13V55.2221Z" fill="url(#paint50_linear_175_198)"/>
<path d="M921.13 78.015H924.07V79.072H916.45V78.015H919.85V66.8066L916.61 68.7411L916.05 67.8437L920.05 65.3706H921.13V78.015Z" fill="url(#paint51_linear_175_198)"/>
<path d="M919.93 87.964C921.356 87.964 922.436 88.569 923.17 89.7789C923.916 90.9755 924.29 92.7173 924.29 95.0041C924.29 97.291 923.916 99.0394 923.17 100.249C922.436 101.459 921.356 102.064 919.93 102.064C918.517 102.064 917.437 101.459 916.69 100.249C915.943 99.0394 915.57 97.291 915.57 95.0041C915.57 92.7306 915.943 90.9888 916.69 89.7789C917.437 88.569 918.517 87.964 919.93 87.964ZM916.99 95.0041C916.99 96.6262 917.137 97.896 917.43 98.8134L921.87 89.9783C921.403 89.3534 920.756 89.041 919.93 89.041C919.01 89.041 918.29 89.5329 917.77 90.5168C917.25 91.4874 916.99 92.9832 916.99 95.0041ZM919.93 100.967C920.863 100.967 921.59 100.482 922.11 99.5114C922.63 98.5275 922.89 97.0251 922.89 95.0041C922.89 93.289 922.723 91.9594 922.39 91.0154L917.95 99.9302C918.43 100.622 919.09 100.967 919.93 100.967Z" fill="url(#paint52_linear_175_198)"/>
<path d="M921.13 123.601H924.07V124.658H916.45V123.601H919.85V112.392L916.61 114.327L916.05 113.429L920.05 110.956H921.13V123.601Z" fill="url(#paint53_linear_175_198)"/>
<path d="M919.93 133.55C921.356 133.55 922.436 134.155 923.17 135.365C923.916 136.561 924.29 138.303 924.29 140.59C924.29 142.877 923.916 144.625 923.17 145.835C922.436 147.045 921.356 147.65 919.93 147.65C918.517 147.65 917.437 147.045 916.69 145.835C915.943 144.625 915.57 142.877 915.57 140.59C915.57 138.316 915.943 136.574 916.69 135.365C917.437 134.155 918.517 133.55 919.93 133.55ZM916.99 140.59C916.99 142.212 917.137 143.482 917.43 144.399L921.87 135.564C921.403 134.939 920.756 134.627 919.93 134.627C919.01 134.627 918.29 135.119 917.77 136.102C917.25 137.073 916.99 138.569 916.99 140.59ZM919.93 146.553C920.863 146.553 921.59 146.068 922.11 145.097C922.63 144.113 922.89 142.611 922.89 140.59C922.89 138.875 922.723 137.545 922.39 136.601L917.95 145.516C918.43 146.207 919.09 146.553 919.93 146.553Z" fill="url(#paint54_linear_175_198)"/>
<path d="M919.93 156.342C921.356 156.342 922.436 156.947 923.17 158.157C923.916 159.354 924.29 161.096 924.29 163.383C924.29 165.669 923.916 167.418 923.17 168.628C922.436 169.838 921.356 170.443 919.93 170.443C918.517 170.443 917.437 169.838 916.69 168.628C915.943 167.418 915.57 165.669 915.57 163.383C915.57 161.109 915.943 159.367 916.69 158.157C917.437 156.947 918.517 156.342 919.93 156.342ZM916.99 163.383C916.99 165.005 917.137 166.274 917.43 167.192L921.87 158.357C921.403 157.732 920.756 157.419 919.93 157.419C919.01 157.419 918.29 157.911 917.77 158.895C917.25 159.866 916.99 161.362 916.99 163.383ZM919.93 169.346C920.863 169.346 921.59 168.86 922.11 167.89C922.63 166.906 922.89 165.404 922.89 163.383C922.89 161.667 922.723 160.338 922.39 159.394L917.95 168.309C918.43 169 919.09 169.346 919.93 169.346Z" fill="url(#paint55_linear_175_198)"/>
<path d="M921.13 191.979H924.07V193.036H916.45V191.979H919.85V180.771L916.61 182.705L916.05 181.808L920.05 179.335H921.13V191.979Z" fill="url(#paint56_linear_175_198)"/>
<path d="M919.93 201.928C921.356 201.928 922.436 202.533 923.17 203.743C923.916 204.94 924.29 206.681 924.29 208.968C924.29 211.255 923.916 213.003 923.17 214.213C922.436 215.423 921.356 216.028 919.93 216.028C918.517 216.028 917.437 215.423 916.69 214.213C915.943 213.003 915.57 211.255 915.57 208.968C915.57 206.695 915.943 204.953 916.69 203.743C917.437 202.533 918.517 201.928 919.93 201.928ZM916.99 208.968C916.99 210.59 917.137 211.86 917.43 212.777L921.87 203.942C921.403 203.317 920.756 203.005 919.93 203.005C919.01 203.005 918.29 203.497 917.77 204.481C917.25 205.451 916.99 206.947 916.99 208.968ZM919.93 214.931C920.863 214.931 921.59 214.446 922.11 213.475C922.63 212.492 922.89 210.989 922.89 208.968C922.89 207.253 922.723 205.923 922.39 204.979L917.95 213.894C918.43 214.586 919.09 214.931 919.93 214.931Z" fill="url(#paint57_linear_175_198)"/>
<path d="M921.13 237.565H924.07V238.622H916.45V237.565H919.85V226.356L916.61 228.291L916.05 227.393L920.05 224.92H921.13V237.565Z" fill="url(#paint58_linear_175_198)"/>
<path d="M921.13 260.357H924.07V261.414H916.45V260.357H919.85V249.149L916.61 251.084L916.05 250.186L920.05 247.713H921.13V260.357Z" fill="url(#paint59_linear_175_198)"/>
<path d="M957.07 19.5856C958.497 19.5856 959.577 20.1906 960.31 21.4005C961.057 22.5971 961.43 24.3389 961.43 26.6257C961.43 28.9126 961.057 30.661 960.31 31.8709C959.577 33.0808 958.497 33.6858 957.07 33.6858C955.657 33.6858 954.577 33.0808 953.83 31.8709C953.084 30.661 952.71 28.9126 952.71 26.6257C952.71 24.3522 953.084 22.6104 953.83 21.4005C954.577 20.1906 955.657 19.5856 957.07 19.5856ZM954.13 26.6257C954.13 28.2478 954.277 29.5176 954.57 30.435L959.01 21.5999C958.543 20.975 957.897 20.6626 957.07 20.6626C956.15 20.6626 955.43 21.1545 954.91 22.1384C954.39 23.109 954.13 24.6048 954.13 26.6257ZM957.07 32.5889C958.003 32.5889 958.73 32.1036 959.25 31.133C959.77 30.1491 960.03 28.6467 960.03 26.6257C960.03 24.9106 959.863 23.581 959.53 22.637L955.09 31.5518C955.57 32.2432 956.23 32.5889 957.07 32.5889Z" fill="url(#paint60_linear_175_198)"/>
<path d="M958.27 55.2221H961.21V56.2792H953.59V55.2221H956.99V44.0138L953.75 45.9483L953.19 45.0509L957.19 42.5778H958.27V55.2221Z" fill="url(#paint61_linear_175_198)"/>
<path d="M957.07 65.1712C958.497 65.1712 959.577 65.7762 960.31 66.9861C961.057 68.1827 961.43 69.9245 961.43 72.2113C961.43 74.4982 961.057 76.2466 960.31 77.4565C959.577 78.6664 958.497 79.2714 957.07 79.2714C955.657 79.2714 954.577 78.6664 953.83 77.4565C953.084 76.2466 952.71 74.4982 952.71 72.2113C952.71 69.9378 953.084 68.196 953.83 66.9861C954.577 65.7762 955.657 65.1712 957.07 65.1712ZM954.13 72.2113C954.13 73.8334 954.277 75.1032 954.57 76.0206L959.01 67.1855C958.543 66.5606 957.897 66.2482 957.07 66.2482C956.15 66.2482 955.43 66.7401 954.91 67.724C954.39 68.6946 954.13 70.1904 954.13 72.2113ZM957.07 78.1745C958.003 78.1745 958.73 77.6892 959.25 76.7186C959.77 75.7347 960.03 74.2323 960.03 72.2113C960.03 70.4962 959.863 69.1666 959.53 68.2226L955.09 77.1374C955.57 77.8288 956.23 78.1745 957.07 78.1745Z" fill="url(#paint62_linear_175_198)"/>
<path d="M957.07 87.964C958.497 87.964 959.577 88.569 960.31 89.7789C961.057 90.9755 961.43 92.7173 961.43 95.0041C961.43 97.291 961.057 99.0394 960.31 100.249C959.577 101.459 958.497 102.064 957.07 102.064C955.657 102.064 954.577 101.459 953.83 100.249C953.084 99.0394 952.71 97.291 952.71 95.0041C952.71 92.7306 953.084 90.9888 953.83 89.7789C954.577 88.569 955.657 87.964 957.07 87.964ZM954.13 95.0041C954.13 96.6262 954.277 97.896 954.57 98.8134L959.01 89.9783C958.543 89.3534 957.897 89.041 957.07 89.041C956.15 89.041 955.43 89.5329 954.91 90.5168C954.39 91.4874 954.13 92.9832 954.13 95.0041ZM957.07 100.967C958.003 100.967 958.73 100.482 959.25 99.5114C959.77 98.5275 960.03 97.0251 960.03 95.0041C960.03 93.289 959.863 91.9594 959.53 91.0154L955.09 99.9302C955.57 100.622 956.23 100.967 957.07 100.967Z" fill="url(#paint63_linear_175_198)"/>
<path d="M958.27 123.601H961.21V124.658H953.59V123.601H956.99V112.392L953.75 114.327L953.19 113.429L957.19 110.956H958.27V123.601Z" fill="url(#paint64_linear_175_198)"/>
<path d="M957.07 133.55C958.497 133.55 959.577 134.155 960.31 135.365C961.057 136.561 961.43 138.303 961.43 140.59C961.43 142.877 961.057 144.625 960.31 145.835C959.577 147.045 958.497 147.65 957.07 147.65C955.657 147.65 954.577 147.045 953.83 145.835C953.084 144.625 952.71 142.877 952.71 140.59C952.71 138.316 953.084 136.574 953.83 135.365C954.577 134.155 955.657 133.55 957.07 133.55ZM954.13 140.59C954.13 142.212 954.277 143.482 954.57 144.399L959.01 135.564C958.543 134.939 957.897 134.627 957.07 134.627C956.15 134.627 955.43 135.119 954.91 136.102C954.39 137.073 954.13 138.569 954.13 140.59ZM957.07 146.553C958.003 146.553 958.73 146.068 959.25 145.097C959.77 144.113 960.03 142.611 960.03 140.59C960.03 138.875 959.863 137.545 959.53 136.601L955.09 145.516C955.57 146.207 956.23 146.553 957.07 146.553Z" fill="url(#paint65_linear_175_198)"/>
<path d="M958.27 169.186H961.21V170.243H953.59V169.186H956.99V157.978L953.75 159.912L953.19 159.015L957.19 156.542H958.27V169.186Z" fill="url(#paint66_linear_175_198)"/>
<path d="M957.07 179.135C958.497 179.135 959.577 179.74 960.31 180.95C961.057 182.147 961.43 183.888 961.43 186.175C961.43 188.462 961.057 190.211 960.31 191.421C959.577 192.63 958.497 193.235 957.07 193.235C955.657 193.235 954.577 192.63 953.83 191.421C953.084 190.211 952.71 188.462 952.71 186.175C952.71 183.902 953.084 182.16 953.83 180.95C954.577 179.74 955.657 179.135 957.07 179.135ZM954.13 186.175C954.13 187.797 954.277 189.067 954.57 189.985L959.01 181.15C958.543 180.525 957.897 180.212 957.07 180.212C956.15 180.212 955.43 180.704 954.91 181.688C954.39 182.659 954.13 184.154 954.13 186.175ZM957.07 192.139C958.003 192.139 958.73 191.653 959.25 190.683C959.77 189.699 960.03 188.196 960.03 186.175C960.03 184.46 959.863 183.131 959.53 182.187L955.09 191.101C955.57 191.793 956.23 192.139 957.07 192.139Z" fill="url(#paint67_linear_175_198)"/>
<path d="M957.07 201.928C958.497 201.928 959.577 202.533 960.31 203.743C961.057 204.94 961.43 206.681 961.43 208.968C961.43 211.255 961.057 213.003 960.31 214.213C959.577 215.423 958.497 216.028 957.07 216.028C955.657 216.028 954.577 215.423 953.83 214.213C953.084 213.003 952.71 211.255 952.71 208.968C952.71 206.695 953.084 204.953 953.83 203.743C954.577 202.533 955.657 201.928 957.07 201.928ZM954.13 208.968C954.13 210.59 954.277 211.86 954.57 212.777L959.01 203.942C958.543 203.317 957.897 203.005 957.07 203.005C956.15 203.005 955.43 203.497 954.91 204.481C954.39 205.451 954.13 206.947 954.13 208.968ZM957.07 214.931C958.003 214.931 958.73 214.446 959.25 213.475C959.77 212.492 960.03 210.989 960.03 208.968C960.03 207.253 959.863 205.923 959.53 204.979L955.09 213.894C955.57 214.586 956.23 214.931 957.07 214.931Z" fill="url(#paint68_linear_175_198)"/>
<path d="M958.27 237.565H961.21V238.622H953.59V237.565H956.99V226.356L953.75 228.291L953.19 227.393L957.19 224.92H958.27V237.565Z" fill="url(#paint69_linear_175_198)"/>
<path d="M957.07 247.514C958.497 247.514 959.577 248.119 960.31 249.329C961.057 250.525 961.43 252.267 961.43 254.554C961.43 256.841 961.057 258.589 960.31 259.799C959.577 261.009 958.497 261.614 957.07 261.614C955.657 261.614 954.577 261.009 953.83 259.799C953.084 258.589 952.71 256.841 952.71 254.554C952.71 252.28 953.084 250.538 953.83 249.329C954.577 248.119 955.657 247.514 957.07 247.514ZM954.13 254.554C954.13 256.176 954.277 257.446 954.57 258.363L959.01 249.528C958.543 248.903 957.897 248.591 957.07 248.591C956.15 248.591 955.43 249.083 954.91 250.066C954.39 251.037 954.13 252.533 954.13 254.554ZM957.07 260.517C958.003 260.517 958.73 260.032 959.25 259.061C959.77 258.077 960.03 256.575 960.03 254.554C960.03 252.839 959.863 251.509 959.53 250.565L955.09 259.48C955.57 260.171 956.23 260.517 957.07 260.517Z" fill="url(#paint70_linear_175_198)"/>
<path d="M958.27 283.15H961.21V284.207H953.59V283.15H956.99V271.942L953.75 273.876L953.19 272.979L957.19 270.506H958.27V283.15Z" fill="url(#paint71_linear_175_198)"/>
<path d="M958.27 305.943H961.21V307H953.59V305.943H956.99V294.735L953.75 296.669L953.19 295.772L957.19 293.299H958.27V305.943Z" fill="url(#paint72_linear_175_198)"/>
<path d="M901.36 42.3784C902.786 42.3784 903.866 42.9834 904.599 44.1933C905.346 45.3899 905.719 47.1317 905.719 49.4185C905.719 51.7054 905.346 53.4538 904.599 54.6637C903.866 55.8736 902.786 56.4786 901.36 56.4786C899.946 56.4786 898.867 55.8736 898.12 54.6637C897.373 53.4538 897 51.7054 897 49.4185C897 47.145 897.373 45.4032 898.12 44.1933C898.867 42.9834 899.946 42.3784 901.36 42.3784ZM898.42 49.4185C898.42 51.0406 898.567 52.3104 898.86 53.2278L903.3 44.3927C902.833 43.7678 902.186 43.4554 901.36 43.4554C900.44 43.4554 899.72 43.9473 899.2 44.9312C898.68 45.9018 898.42 47.3976 898.42 49.4185ZM901.36 55.3817C902.293 55.3817 903.02 54.8964 903.54 53.9258C904.06 52.9419 904.319 51.4395 904.319 49.4185C904.319 47.7034 904.153 46.3738 903.82 45.4298L899.38 54.3446C899.86 55.036 900.52 55.3817 901.36 55.3817Z" fill="url(#paint73_linear_175_198)"/>
<path d="M901.36 65.1712C902.786 65.1712 903.866 65.7762 904.599 66.9861C905.346 68.1827 905.719 69.9245 905.719 72.2113C905.719 74.4982 905.346 76.2466 904.599 77.4565C903.866 78.6664 902.786 79.2714 901.36 79.2714C899.946 79.2714 898.867 78.6664 898.12 77.4565C897.373 76.2466 897 74.4982 897 72.2113C897 69.9378 897.373 68.196 898.12 66.9861C898.867 65.7762 899.946 65.1712 901.36 65.1712ZM898.42 72.2113C898.42 73.8334 898.567 75.1032 898.86 76.0206L903.3 67.1855C902.833 66.5606 902.186 66.2482 901.36 66.2482C900.44 66.2482 899.72 66.7401 899.2 67.724C898.68 68.6946 898.42 70.1904 898.42 72.2113ZM901.36 78.1745C902.293 78.1745 903.02 77.6892 903.54 76.7186C904.06 75.7347 904.319 74.2323 904.319 72.2113C904.319 70.4962 904.153 69.1666 903.82 68.2226L899.38 77.1374C899.86 77.8288 900.52 78.1745 901.36 78.1745Z" fill="url(#paint74_linear_175_198)"/>
<path d="M902.56 100.808H905.499V101.865H897.88V100.808H901.28V89.5994L898.04 91.5339L897.48 90.6365L901.48 88.1635H902.56V100.808Z" fill="url(#paint75_linear_175_198)"/>
<path d="M901.36 110.757C902.786 110.757 903.866 111.362 904.599 112.572C905.346 113.768 905.719 115.51 905.719 117.797C905.719 120.084 905.346 121.832 904.599 123.042C903.866 124.252 902.786 124.857 901.36 124.857C899.946 124.857 898.867 124.252 898.12 123.042C897.373 121.832 897 120.084 897 117.797C897 115.523 897.373 113.782 898.12 112.572C898.867 111.362 899.946 110.757 901.36 110.757ZM898.42 117.797C898.42 119.419 898.567 120.689 898.86 121.606L903.3 112.771C902.833 112.146 902.186 111.834 901.36 111.834C900.44 111.834 899.72 112.326 899.2 113.31C898.68 114.28 898.42 115.776 898.42 117.797ZM901.36 123.76C902.293 123.76 903.02 123.275 903.54 122.304C904.06 121.32 904.319 119.818 904.319 117.797C904.319 116.082 904.153 114.752 903.82 113.808L899.38 122.723C899.86 123.414 900.52 123.76 901.36 123.76Z" fill="url(#paint76_linear_175_198)"/>
<path d="M902.56 146.393H905.499V147.45H897.88V146.393H901.28V135.185L898.04 137.12L897.48 136.222L901.48 133.749H902.56V146.393Z" fill="url(#paint77_linear_175_198)"/>
<path d="M902.56 169.186H905.499V170.243H897.88V169.186H901.28V157.978L898.04 159.912L897.48 159.015L901.48 156.542H902.56V169.186Z" fill="url(#paint78_linear_175_198)"/>
<path d="M939.7 9.63655H942.64V10.6936H935.02V9.63655H938.42V-1.57181L935.18 0.362726L934.62 -0.534742L938.62 -3.00776H939.7V9.63655Z" fill="url(#paint79_linear_175_198)"/>
<path d="M938.5 19.5856C939.927 19.5856 941.006 20.1906 941.74 21.4005C942.486 22.5971 942.86 24.3389 942.86 26.6257C942.86 28.9126 942.486 30.661 941.74 31.8709C941.006 33.0808 939.927 33.6858 938.5 33.6858C937.087 33.6858 936.007 33.0808 935.26 31.8709C934.514 30.661 934.14 28.9126 934.14 26.6257C934.14 24.3522 934.514 22.6104 935.26 21.4005C936.007 20.1906 937.087 19.5856 938.5 19.5856ZM935.56 26.6257C935.56 28.2478 935.707 29.5176 936 30.435L940.44 21.5999C939.973 20.975 939.327 20.6626 938.5 20.6626C937.58 20.6626 936.86 21.1545 936.34 22.1384C935.82 23.109 935.56 24.6048 935.56 26.6257ZM938.5 32.5889C939.433 32.5889 940.16 32.1036 940.68 31.133C941.2 30.1491 941.46 28.6467 941.46 26.6257C941.46 24.9106 941.293 23.581 940.96 22.637L936.52 31.5518C937 32.2432 937.66 32.5889 938.5 32.5889Z" fill="url(#paint80_linear_175_198)"/>
<path d="M939.7 55.2221H942.64V56.2792H935.02V55.2221H938.42V44.0138L935.18 45.9483L934.62 45.0509L938.62 42.5778H939.7V55.2221Z" fill="url(#paint81_linear_175_198)"/>
<path d="M939.7 78.015H942.64V79.072H935.02V78.015H938.42V66.8066L935.18 68.7411L934.62 67.8437L938.62 65.3706H939.7V78.015Z" fill="url(#paint82_linear_175_198)"/>
<path d="M938.5 87.964C939.927 87.964 941.006 88.569 941.74 89.7789C942.486 90.9755 942.86 92.7173 942.86 95.0041C942.86 97.291 942.486 99.0394 941.74 100.249C941.006 101.459 939.927 102.064 938.5 102.064C937.087 102.064 936.007 101.459 935.26 100.249C934.514 99.0394 934.14 97.291 934.14 95.0041C934.14 92.7306 934.514 90.9888 935.26 89.7789C936.007 88.569 937.087 87.964 938.5 87.964ZM935.56 95.0041C935.56 96.6262 935.707 97.896 936 98.8134L940.44 89.9783C939.973 89.3534 939.327 89.041 938.5 89.041C937.58 89.041 936.86 89.5329 936.34 90.5168C935.82 91.4874 935.56 92.9832 935.56 95.0041ZM938.5 100.967C939.433 100.967 940.16 100.482 940.68 99.5114C941.2 98.5275 941.46 97.0251 941.46 95.0041C941.46 93.289 941.293 91.9594 940.96 91.0154L936.52 99.9302C937 100.622 937.66 100.967 938.5 100.967Z" fill="url(#paint83_linear_175_198)"/>
<path d="M939.7 123.601H942.64V124.658H935.02V123.601H938.42V112.392L935.18 114.327L934.62 113.429L938.62 110.956H939.7V123.601Z" fill="url(#paint84_linear_175_198)"/>
<path d="M939.7 146.393H942.64V147.45H935.02V146.393H938.42V135.185L935.18 137.12L934.62 136.222L938.62 133.749H939.7V146.393Z" fill="url(#paint85_linear_175_198)"/>
<path d="M938.5 156.342C939.927 156.342 941.006 156.947 941.74 158.157C942.486 159.354 942.86 161.096 942.86 163.383C942.86 165.669 942.486 167.418 941.74 168.628C941.006 169.838 939.927 170.443 938.5 170.443C937.087 170.443 936.007 169.838 935.26 168.628C934.514 167.418 934.14 165.669 934.14 163.383C934.14 161.109 934.514 159.367 935.26 158.157C936.007 156.947 937.087 156.342 938.5 156.342ZM935.56 163.383C935.56 165.005 935.707 166.274 936 167.192L940.44 158.357C939.973 157.732 939.327 157.419 938.5 157.419C937.58 157.419 936.86 157.911 936.34 158.895C935.82 159.866 935.56 161.362 935.56 163.383ZM938.5 169.346C939.433 169.346 940.16 168.86 940.68 167.89C941.2 166.906 941.46 165.404 941.46 163.383C941.46 161.667 941.293 160.338 940.96 159.394L936.52 168.309C937 169 937.66 169.346 938.5 169.346Z" fill="url(#paint86_linear_175_198)"/>
<path d="M939.7 191.979H942.64V193.036H935.02V191.979H938.42V180.771L935.18 182.705L934.62 181.808L938.62 179.335H939.7V191.979Z" fill="url(#paint87_linear_175_198)"/>
<path d="M938.5 201.928C939.927 201.928 941.006 202.533 941.74 203.743C942.486 204.94 942.86 206.681 942.86 208.968C942.86 211.255 942.486 213.003 941.74 214.213C941.006 215.423 939.927 216.028 938.5 216.028C937.087 216.028 936.007 215.423 935.26 214.213C934.514 213.003 934.14 211.255 934.14 208.968C934.14 206.695 934.514 204.953 935.26 203.743C936.007 202.533 937.087 201.928 938.5 201.928ZM935.56 208.968C935.56 210.59 935.707 211.86 936 212.777L940.44 203.942C939.973 203.317 939.327 203.005 938.5 203.005C937.58 203.005 936.86 203.497 936.34 204.481C935.82 205.451 935.56 206.947 935.56 208.968ZM938.5 214.931C939.433 214.931 940.16 214.446 940.68 213.475C941.2 212.492 941.46 210.989 941.46 208.968C941.46 207.253 941.293 205.923 940.96 204.979L936.52 213.894C937 214.586 937.66 214.931 938.5 214.931Z" fill="url(#paint88_linear_175_198)"/>
<path d="M975.64 -3.2072C977.067 -3.2072 978.147 -2.60224 978.88 -1.39232C979.627 -0.195698 980 1.54605 980 3.83293C980 6.11981 979.627 7.86821 978.88 9.07812C978.147 10.288 977.067 10.893 975.64 10.893C974.227 10.893 973.147 10.288 972.401 9.07812C971.654 7.86821 971.281 6.11981 971.281 3.83293C971.281 1.55935 971.654 -0.182403 972.401 -1.39232C973.147 -2.60224 974.227 -3.2072 975.64 -3.2072ZM972.7 3.83293C972.7 5.45502 972.847 6.72477 973.14 7.64218L977.58 -1.19288C977.114 -1.81779 976.467 -2.13024 975.64 -2.13024C974.72 -2.13024 974 -1.63829 973.48 -0.654404C972.96 0.316189 972.7 1.81197 972.7 3.83293ZM975.64 9.7961C976.574 9.7961 977.3 9.3108 977.82 8.34021C978.34 7.35632 978.6 5.85389 978.6 3.83293C978.6 2.11777 978.433 0.78819 978.1 -0.155812L973.66 8.75902C974.14 9.4504 974.8 9.7961 975.64 9.7961Z" fill="url(#paint89_linear_175_198)"/>
<path d="M976.84 32.4293H979.78V33.4864H972.161V32.4293H975.56V21.221L972.321 23.1555L971.761 22.2581L975.76 19.785H976.84V32.4293Z" fill="url(#paint90_linear_175_198)"/>
<path d="M976.84 55.2221H979.78V56.2792H972.161V55.2221H975.56V44.0138L972.321 45.9483L971.761 45.0509L975.76 42.5778H976.84V55.2221Z" fill="url(#paint91_linear_175_198)"/>
<path d="M975.64 65.1712C977.067 65.1712 978.147 65.7762 978.88 66.9861C979.627 68.1827 980 69.9245 980 72.2113C980 74.4982 979.627 76.2466 978.88 77.4565C978.147 78.6664 977.067 79.2714 975.64 79.2714C974.227 79.2714 973.147 78.6664 972.401 77.4565C971.654 76.2466 971.281 74.4982 971.281 72.2113C971.281 69.9378 971.654 68.196 972.401 66.9861C973.147 65.7762 974.227 65.1712 975.64 65.1712ZM972.7 72.2113C972.7 73.8334 972.847 75.1032 973.14 76.0206L977.58 67.1855C977.114 66.5606 976.467 66.2482 975.64 66.2482C974.72 66.2482 974 66.7401 973.48 67.724C972.96 68.6946 972.7 70.1904 972.7 72.2113ZM975.64 78.1745C976.574 78.1745 977.3 77.6892 977.82 76.7186C978.34 75.7347 978.6 74.2323 978.6 72.2113C978.6 70.4962 978.433 69.1666 978.1 68.2226L973.66 77.1374C974.14 77.8288 974.8 78.1745 975.64 78.1745Z" fill="url(#paint92_linear_175_198)"/>
<path d="M975.64 87.964C977.067 87.964 978.147 88.569 978.88 89.7789C979.627 90.9755 980 92.7173 980 95.0041C980 97.291 979.627 99.0394 978.88 100.249C978.147 101.459 977.067 102.064 975.64 102.064C974.227 102.064 973.147 101.459 972.401 100.249C971.654 99.0394 971.281 97.291 971.281 95.0041C971.281 92.7306 971.654 90.9888 972.401 89.7789C973.147 88.569 974.227 87.964 975.64 87.964ZM972.7 95.0041C972.7 96.6262 972.847 97.896 973.14 98.8134L977.58 89.9783C977.114 89.3534 976.467 89.041 975.64 89.041C974.72 89.041 974 89.5329 973.48 90.5168C972.96 91.4874 972.7 92.9832 972.7 95.0041ZM975.64 100.967C976.574 100.967 977.3 100.482 977.82 99.5114C978.34 98.5275 978.6 97.0251 978.6 95.0041C978.6 93.289 978.433 91.9594 978.1 91.0154L973.66 99.9302C974.14 100.622 974.8 100.967 975.64 100.967Z" fill="url(#paint93_linear_175_198)"/>
</g>
<defs>
<filter id="filter0_f_175_198" x="-558.19" y="-712.19" width="2141.38" height="1500.38" filterUnits="userSpaceOnUse" color-interpolation-filters="sRGB">
<feFlood flood-opacity="0" result="BackgroundImageFix"/>
<feBlend mode="normal" in="SourceGraphic" in2="BackgroundImageFix" result="shape"/>
<feGaussianBlur stdDeviation="200.095" result="effect1_foregroundBlur_175_198"/>
</filter>
<linearGradient id="paint0_linear_175_198" x1="52.5" y1="274" x2="52.5" y2="585.381" gradientUnits="userSpaceOnUse">
<stop stop-color="#F7DD43"/>
<stop offset="1" stop-color="#F7DD43" stop-opacity="0"/>
</linearGradient>
<linearGradient id="paint1_linear_175_198" x1="52.5" y1="274" x2="52.5" y2="585.381" gradientUnits="userSpaceOnUse">
<stop stop-color="#F7DD43"/>
<stop offset="1" stop-color="#F7DD43" stop-opacity="0"/>
</linearGradient>
<linearGradient id="paint2_linear_175_198" x1="52.5" y1="274" x2="52.5" y2="585.381" gradientUnits="userSpaceOnUse">
<stop stop-color="#F7DD43"/>
<stop offset="1" stop-color="#F7DD43" stop-opacity="0"/>
</linearGradient>
<linearGradient id="paint3_linear_175_198" x1="52.5" y1="274" x2="52.5" y2="585.381" gradientUnits="userSpaceOnUse">
<stop stop-color="#F7DD43"/>
<stop offset="1" stop-color="#F7DD43" stop-opacity="0"/>
</linearGradient>
<linearGradient id="paint4_linear_175_198" x1="52.5" y1="274" x2="52.5" y2="585.381" gradientUnits="userSpaceOnUse">
<stop stop-color="#F7DD43"/>
<stop offset="1" stop-color="#F7DD43" stop-opacity="0"/>
</linearGradient>
<linearGradient id="paint5_linear_175_198" x1="52.5" y1="274" x2="52.5" y2="585.381" gradientUnits="userSpaceOnUse">
<stop stop-color="#F7DD43"/>
<stop offset="1" stop-color="#F7DD43" stop-opacity="0"/>
</linearGradient>
<linearGradient id="paint6_linear_175_198" x1="52.5" y1="274" x2="52.5" y2="585.381" gradientUnits="userSpaceOnUse">
<stop stop-color="#F7DD43"/>
<stop offset="1" stop-color="#F7DD43" stop-opacity="0"/>
</linearGradient>
<linearGradient id="paint7_linear_175_198" x1="52.5" y1="274" x2="52.5" y2="585.381" gradientUnits="userSpaceOnUse">
<stop stop-color="#F7DD43"/>
<stop offset="1" stop-color="#F7DD43" stop-opacity="0"/>
</linearGradient>
<linearGradient id="paint8_linear_175_198" x1="52.5" y1="274" x2="52.5" y2="585.381" gradientUnits="userSpaceOnUse">
<stop stop-color="#F7DD43"/>
<stop offset="1" stop-color="#F7DD43" stop-opacity="0"/>
</linearGradient>
<linearGradient id="paint9_linear_175_198" x1="52.5" y1="274" x2="52.5" y2="585.381" gradientUnits="userSpaceOnUse">
<stop stop-color="#F7DD43"/>
<stop offset="1" stop-color="#F7DD43" stop-opacity="0"/>
</linearGradient>
<linearGradient id="paint10_linear_175_198" x1="52.5" y1="274" x2="52.5" y2="585.381" gradientUnits="userSpaceOnUse">
<stop stop-color="#F7DD43"/>
<stop offset="1" stop-color="#F7DD43" stop-opacity="0"/>
</linearGradient>
<linearGradient id="paint11_linear_175_198" x1="52.5" y1="274" x2="52.5" y2="585.381" gradientUnits="userSpaceOnUse">
<stop stop-color="#F7DD43"/>
<stop offset="1" stop-color="#F7DD43" stop-opacity="0"/>
</linearGradient>
<linearGradient id="paint12_linear_175_198" x1="52.5" y1="274" x2="52.5" y2="585.381" gradientUnits="userSpaceOnUse">
<stop stop-color="#F7DD43"/>
<stop offset="1" stop-color="#F7DD43" stop-opacity="0"/>
</linearGradient>
<linearGradient id="paint13_linear_175_198" x1="52.5" y1="274" x2="52.5" y2="585.381" gradientUnits="userSpaceOnUse">
<stop stop-color="#F7DD43"/>
<stop offset="1" stop-color="#F7DD43" stop-opacity="0"/>
</linearGradient>
<linearGradient id="paint14_linear_175_198" x1="52.5" y1="274" x2="52.5" y2="585.381" gradientUnits="userSpaceOnUse">
<stop stop-color="#F7DD43"/>
<stop offset="1" stop-color="#F7DD43" stop-opacity="0"/>
</linearGradient>
<linearGradient id="paint15_linear_175_198" x1="52.5" y1="274" x2="52.5" y2="585.381" gradientUnits="userSpaceOnUse">
<stop stop-color="#F7DD43"/>
<stop offset="1" stop-color="#F7DD43" stop-opacity="0"/>
</linearGradient>
<linearGradient id="paint16_linear_175_198" x1="52.5" y1="274" x2="52.5" y2="585.381" gradientUnits="userSpaceOnUse">
<stop stop-color="#F7DD43"/>
<stop offset="1" stop-color="#F7DD43" stop-opacity="0"/>
</linearGradient>
<linearGradient id="paint17_linear_175_198" x1="52.5" y1="274" x2="52.5" y2="585.381" gradientUnits="userSpaceOnUse">
<stop stop-color="#F7DD43"/>
<stop offset="1" stop-color="#F7DD43" stop-opacity="0"/>
</linearGradient>
<linearGradient id="paint18_linear_175_198" x1="52.5" y1="274" x2="52.5" y2="585.381" gradientUnits="userSpaceOnUse">
<stop stop-color="#F7DD43"/>
<stop offset="1" stop-color="#F7DD43" stop-opacity="0"/>
</linearGradient>
<linearGradient id="paint19_linear_175_198" x1="52.5" y1="274" x2="52.5" y2="585.381" gradientUnits="userSpaceOnUse">
<stop stop-color="#F7DD43"/>
<stop offset="1" stop-color="#F7DD43" stop-opacity="0"/>
</linearGradient>
<linearGradient id="paint20_linear_175_198" x1="52.5" y1="274" x2="52.5" y2="585.381" gradientUnits="userSpaceOnUse">
<stop stop-color="#F7DD43"/>
<stop offset="1" stop-color="#F7DD43" stop-opacity="0"/>
</linearGradient>
<linearGradient id="paint21_linear_175_198" x1="52.5" y1="274" x2="52.5" y2="585.381" gradientUnits="userSpaceOnUse">
<stop stop-color="#F7DD43"/>
<stop offset="1" stop-color="#F7DD43" stop-opacity="0"/>
</linearGradient>
<linearGradient id="paint22_linear_175_198" x1="52.5" y1="274" x2="52.5" y2="585.381" gradientUnits="userSpaceOnUse">
<stop stop-color="#F7DD43"/>
<stop offset="1" stop-color="#F7DD43" stop-opacity="0"/>
</linearGradient>
<linearGradient id="paint23_linear_175_198" x1="52.5" y1="274" x2="52.5" y2="585.381" gradientUnits="userSpaceOnUse">
<stop stop-color="#F7DD43"/>
<stop offset="1" stop-color="#F7DD43" stop-opacity="0"/>
</linearGradient>
<linearGradient id="paint24_linear_175_198" x1="52.5" y1="274" x2="52.5" y2="585.381" gradientUnits="userSpaceOnUse">
<stop stop-color="#F7DD43"/>
<stop offset="1" stop-color="#F7DD43" stop-opacity="0"/>
</linearGradient>
<linearGradient id="paint25_linear_175_198" x1="52.5" y1="274" x2="52.5" y2="585.381" gradientUnits="userSpaceOnUse">
<stop stop-color="#F7DD43"/>
<stop offset="1" stop-color="#F7DD43" stop-opacity="0"/>
</linearGradient>
<linearGradient id="paint26_linear_175_198" x1="52.5" y1="274" x2="52.5" y2="585.381" gradientUnits="userSpaceOnUse">
<stop stop-color="#F7DD43"/>
<stop offset="1" stop-color="#F7DD43" stop-opacity="0"/>
</linearGradient>
<linearGradient id="paint27_linear_175_198" x1="52.5" y1="274" x2="52.5" y2="585.381" gradientUnits="userSpaceOnUse">
<stop stop-color="#F7DD43"/>
<stop offset="1" stop-color="#F7DD43" stop-opacity="0"/>
</linearGradient>
<linearGradient id="paint28_linear_175_198" x1="52.5" y1="274" x2="52.5" y2="585.381" gradientUnits="userSpaceOnUse">
<stop stop-color="#F7DD43"/>
<stop offset="1" stop-color="#F7DD43" stop-opacity="0"/>
</linearGradient>
<linearGradient id="paint29_linear_175_198" x1="52.5" y1="274" x2="52.5" y2="585.381" gradientUnits="userSpaceOnUse">
<stop stop-color="#F7DD43"/>
<stop offset="1" stop-color="#F7DD43" stop-opacity="0"/>
</linearGradient>
<linearGradient id="paint30_linear_175_198" x1="52.5" y1="274" x2="52.5" y2="585.381" gradientUnits="userSpaceOnUse">
<stop stop-color="#F7DD43"/>
<stop offset="1" stop-color="#F7DD43" stop-opacity="0"/>
</linearGradient>
<linearGradient id="paint31_linear_175_198" x1="52.5" y1="274" x2="52.5" y2="585.381" gradientUnits="userSpaceOnUse">
<stop stop-color="#F7DD43"/>
<stop offset="1" stop-color="#F7DD43" stop-opacity="0"/>
</linearGradient>
<linearGradient id="paint32_linear_175_198" x1="52.5" y1="274" x2="52.5" y2="585.381" gradientUnits="userSpaceOnUse">
<stop stop-color="#F7DD43"/>
<stop offset="1" stop-color="#F7DD43" stop-opacity="0"/>
</linearGradient>
<linearGradient id="paint33_linear_175_198" x1="52.5" y1="274" x2="52.5" y2="585.381" gradientUnits="userSpaceOnUse">
<stop stop-color="#F7DD43"/>
<stop offset="1" stop-color="#F7DD43" stop-opacity="0"/>
</linearGradient>
<linearGradient id="paint34_linear_175_198" x1="52.5" y1="274" x2="52.5" y2="585.381" gradientUnits="userSpaceOnUse">
<stop stop-color="#F7DD43"/>
<stop offset="1" stop-color="#F7DD43" stop-opacity="0"/>
</linearGradient>
<linearGradient id="paint35_linear_175_198" x1="52.5" y1="274" x2="52.5" y2="585.381" gradientUnits="userSpaceOnUse">
<stop stop-color="#F7DD43"/>
<stop offset="1" stop-color="#F7DD43" stop-opacity="0"/>
</linearGradient>
<linearGradient id="paint36_linear_175_198" x1="52.5" y1="274" x2="52.5" y2="585.381" gradientUnits="userSpaceOnUse">
<stop stop-color="#F7DD43"/>
<stop offset="1" stop-color="#F7DD43" stop-opacity="0"/>
</linearGradient>
<linearGradient id="paint37_linear_175_198" x1="52.5" y1="274" x2="52.5" y2="585.381" gradientUnits="userSpaceOnUse">
<stop stop-color="#F7DD43"/>
<stop offset="1" stop-color="#F7DD43" stop-opacity="0"/>
</linearGradient>
<linearGradient id="paint38_linear_175_198" x1="52.5" y1="274" x2="52.5" y2="585.381" gradientUnits="userSpaceOnUse">
<stop stop-color="#F7DD43"/>
<stop offset="1" stop-color="#F7DD43" stop-opacity="0"/>
</linearGradient>
<linearGradient id="paint39_linear_175_198" x1="52.5" y1="274" x2="52.5" y2="585.381" gradientUnits="userSpaceOnUse">
<stop stop-color="#F7DD43"/>
<stop offset="1" stop-color="#F7DD43" stop-opacity="0"/>
</linearGradient>
<linearGradient id="paint40_linear_175_198" x1="52.5" y1="274" x2="52.5" y2="585.381" gradientUnits="userSpaceOnUse">
<stop stop-color="#F7DD43"/>
<stop offset="1" stop-color="#F7DD43" stop-opacity="0"/>
</linearGradient>
<linearGradient id="paint41_linear_175_198" x1="52.5" y1="274" x2="52.5" y2="585.381" gradientUnits="userSpaceOnUse">
<stop stop-color="#F7DD43"/>
<stop offset="1" stop-color="#F7DD43" stop-opacity="0"/>
</linearGradient>
<linearGradient id="paint42_linear_175_198" x1="52.5" y1="274" x2="52.5" y2="585.381" gradientUnits="userSpaceOnUse">
<stop stop-color="#F7DD43"/>
<stop offset="1" stop-color="#F7DD43" stop-opacity="0"/>
</linearGradient>
<linearGradient id="paint43_linear_175_198" x1="52.5" y1="274" x2="52.5" y2="585.381" gradientUnits="userSpaceOnUse">
<stop stop-color="#F7DD43"/>
<stop offset="1" stop-color="#F7DD43" stop-opacity="0"/>
</linearGradient>
<linearGradient id="paint44_linear_175_198" x1="52.5" y1="274" x2="52.5" y2="585.381" gradientUnits="userSpaceOnUse">
<stop stop-color="#F7DD43"/>
<stop offset="1" stop-color="#F7DD43" stop-opacity="0"/>
</linearGradient>
<linearGradient id="paint45_linear_175_198" x1="52.5" y1="274" x2="52.5" y2="585.381" gradientUnits="userSpaceOnUse">
<stop stop-color="#F7DD43"/>
<stop offset="1" stop-color="#F7DD43" stop-opacity="0"/>
</linearGradient>
<linearGradient id="paint46_linear_175_198" x1="52.5" y1="274" x2="52.5" y2="585.381" gradientUnits="userSpaceOnUse">
<stop stop-color="#F7DD43"/>
<stop offset="1" stop-color="#F7DD43" stop-opacity="0"/>
</linearGradient>
<linearGradient id="paint47_linear_175_198" x1="938.5" y1="-26" x2="938.5" y2="272.818" gradientUnits="userSpaceOnUse">
<stop stop-color="#F7DD43"/>
<stop offset="1" stop-color="#F7DD43" stop-opacity="0"/>
</linearGradient>
<linearGradient id="paint48_linear_175_198" x1="938.5" y1="-26" x2="938.5" y2="272.818" gradientUnits="userSpaceOnUse">
<stop stop-color="#F7DD43"/>
<stop offset="1" stop-color="#F7DD43" stop-opacity="0"/>
</linearGradient>
<linearGradient id="paint49_linear_175_198" x1="938.5" y1="-26" x2="938.5" y2="272.818" gradientUnits="userSpaceOnUse">
<stop stop-color="#F7DD43"/>
<stop offset="1" stop-color="#F7DD43" stop-opacity="0"/>
</linearGradient>
<linearGradient id="paint50_linear_175_198" x1="938.5" y1="-26" x2="938.5" y2="272.818" gradientUnits="userSpaceOnUse">
<stop stop-color="#F7DD43"/>
<stop offset="1" stop-color="#F7DD43" stop-opacity="0"/>
</linearGradient>
<linearGradient id="paint51_linear_175_198" x1="938.5" y1="-26" x2="938.5" y2="272.818" gradientUnits="userSpaceOnUse">
<stop stop-color="#F7DD43"/>
<stop offset="1" stop-color="#F7DD43" stop-opacity="0"/>
</linearGradient>
<linearGradient id="paint52_linear_175_198" x1="938.5" y1="-26" x2="938.5" y2="272.818" gradientUnits="userSpaceOnUse">
<stop stop-color="#F7DD43"/>
<stop offset="1" stop-color="#F7DD43" stop-opacity="0"/>
</linearGradient>
<linearGradient id="paint53_linear_175_198" x1="938.5" y1="-26" x2="938.5" y2="272.818" gradientUnits="userSpaceOnUse">
<stop stop-color="#F7DD43"/>
<stop offset="1" stop-color="#F7DD43" stop-opacity="0"/>
</linearGradient>
<linearGradient id="paint54_linear_175_198" x1="938.5" y1="-26" x2="938.5" y2="272.818" gradientUnits="userSpaceOnUse">
<stop stop-color="#F7DD43"/>
<stop offset="1" stop-color="#F7DD43" stop-opacity="0"/>
</linearGradient>
<linearGradient id="paint55_linear_175_198" x1="938.5" y1="-26" x2="938.5" y2="272.818" gradientUnits="userSpaceOnUse">
<stop stop-color="#F7DD43"/>
<stop offset="1" stop-color="#F7DD43" stop-opacity="0"/>
</linearGradient>
<linearGradient id="paint56_linear_175_198" x1="938.5" y1="-26" x2="938.5" y2="272.818" gradientUnits="userSpaceOnUse">
<stop stop-color="#F7DD43"/>
<stop offset="1" stop-color="#F7DD43" stop-opacity="0"/>
</linearGradient>
<linearGradient id="paint57_linear_175_198" x1="938.5" y1="-26" x2="938.5" y2="272.818" gradientUnits="userSpaceOnUse">
<stop stop-color="#F7DD43"/>
<stop offset="1" stop-color="#F7DD43" stop-opacity="0"/>
</linearGradient>
<linearGradient id="paint58_linear_175_198" x1="938.5" y1="-26" x2="938.5" y2="272.818" gradientUnits="userSpaceOnUse">
<stop stop-color="#F7DD43"/>
<stop offset="1" stop-color="#F7DD43" stop-opacity="0"/>
</linearGradient>
<linearGradient id="paint59_linear_175_198" x1="938.5" y1="-26" x2="938.5" y2="272.818" gradientUnits="userSpaceOnUse">
<stop stop-color="#F7DD43"/>
<stop offset="1" stop-color="#F7DD43" stop-opacity="0"/>
</linearGradient>
<linearGradient id="paint60_linear_175_198" x1="938.5" y1="-26" x2="938.5" y2="272.818" gradientUnits="userSpaceOnUse">
<stop stop-color="#F7DD43"/>
<stop offset="1" stop-color="#F7DD43" stop-opacity="0"/>
</linearGradient>
<linearGradient id="paint61_linear_175_198" x1="938.5" y1="-26" x2="938.5" y2="272.818" gradientUnits="userSpaceOnUse">
<stop stop-color="#F7DD43"/>
<stop offset="1" stop-color="#F7DD43" stop-opacity="0"/>
</linearGradient>
<linearGradient id="paint62_linear_175_198" x1="938.5" y1="-26" x2="938.5" y2="272.818" gradientUnits="userSpaceOnUse">
<stop stop-color="#F7DD43"/>
<stop offset="1" stop-color="#F7DD43" stop-opacity="0"/>
</linearGradient>
<linearGradient id="paint63_linear_175_198" x1="938.5" y1="-26" x2="938.5" y2="272.818" gradientUnits="userSpaceOnUse">
<stop stop-color="#F7DD43"/>
<stop offset="1" stop-color="#F7DD43" stop-opacity="0"/>
</linearGradient>
<linearGradient id="paint64_linear_175_198" x1="938.5" y1="-26" x2="938.5" y2="272.818" gradientUnits="userSpaceOnUse">
<stop stop-color="#F7DD43"/>
<stop offset="1" stop-color="#F7DD43" stop-opacity="0"/>
</linearGradient>
<linearGradient id="paint65_linear_175_198" x1="938.5" y1="-26" x2="938.5" y2="272.818" gradientUnits="userSpaceOnUse">
<stop stop-color="#F7DD43"/>
<stop offset="1" stop-color="#F7DD43" stop-opacity="0"/>
</linearGradient>
<linearGradient id="paint66_linear_175_198" x1="938.5" y1="-26" x2="938.5" y2="272.818" gradientUnits="userSpaceOnUse">
<stop stop-color="#F7DD43"/>
<stop offset="1" stop-color="#F7DD43" stop-opacity="0"/>
</linearGradient>
<linearGradient id="paint67_linear_175_198" x1="938.5" y1="-26" x2="938.5" y2="272.818" gradientUnits="userSpaceOnUse">
<stop stop-color="#F7DD43"/>
<stop offset="1" stop-color="#F7DD43" stop-opacity="0"/>
</linearGradient>
<linearGradient id="paint68_linear_175_198" x1="938.5" y1="-26" x2="938.5" y2="272.818" gradientUnits="userSpaceOnUse">
<stop stop-color="#F7DD43"/>
<stop offset="1" stop-color="#F7DD43" stop-opacity="0"/>
</linearGradient>
<linearGradient id="paint69_linear_175_198" x1="938.5" y1="-26" x2="938.5" y2="272.818" gradientUnits="userSpaceOnUse">
<stop stop-color="#F7DD43"/>
<stop offset="1" stop-color="#F7DD43" stop-opacity="0"/>
</linearGradient>
<linearGradient id="paint70_linear_175_198" x1="938.5" y1="-26" x2="938.5" y2="272.818" gradientUnits="userSpaceOnUse">
<stop stop-color="#F7DD43"/>
<stop offset="1" stop-color="#F7DD43" stop-opacity="0"/>
</linearGradient>
<linearGradient id="paint71_linear_175_198" x1="938.5" y1="-26" x2="938.5" y2="272.818" gradientUnits="userSpaceOnUse">
<stop stop-color="#F7DD43"/>
<stop offset="1" stop-color="#F7DD43" stop-opacity="0"/>
</linearGradient>
<linearGradient id="paint72_linear_175_198" x1="938.5" y1="-26" x2="938.5" y2="272.818" gradientUnits="userSpaceOnUse">
<stop stop-color="#F7DD43"/>
<stop offset="1" stop-color="#F7DD43" stop-opacity="0"/>
</linearGradient>
<linearGradient id="paint73_linear_175_198" x1="938.5" y1="-26" x2="938.5" y2="272.818" gradientUnits="userSpaceOnUse">
<stop stop-color="#F7DD43"/>
<stop offset="1" stop-color="#F7DD43" stop-opacity="0"/>
</linearGradient>
<linearGradient id="paint74_linear_175_198" x1="938.5" y1="-26" x2="938.5" y2="272.818" gradientUnits="userSpaceOnUse">
<stop stop-color="#F7DD43"/>
<stop offset="1" stop-color="#F7DD43" stop-opacity="0"/>
</linearGradient>
<linearGradient id="paint75_linear_175_198" x1="938.5" y1="-26" x2="938.5" y2="272.818" gradientUnits="userSpaceOnUse">
<stop stop-color="#F7DD43"/>
<stop offset="1" stop-color="#F7DD43" stop-opacity="0"/>
</linearGradient>
<linearGradient id="paint76_linear_175_198" x1="938.5" y1="-26" x2="938.5" y2="272.818" gradientUnits="userSpaceOnUse">
<stop stop-color="#F7DD43"/>
<stop offset="1" stop-color="#F7DD43" stop-opacity="0"/>
</linearGradient>
<linearGradient id="paint77_linear_175_198" x1="938.5" y1="-26" x2="938.5" y2="272.818" gradientUnits="userSpaceOnUse">
<stop stop-color="#F7DD43"/>
<stop offset="1" stop-color="#F7DD43" stop-opacity="0"/>
</linearGradient>
<linearGradient id="paint78_linear_175_198" x1="938.5" y1="-26" x2="938.5" y2="272.818" gradientUnits="userSpaceOnUse">
<stop stop-color="#F7DD43"/>
<stop offset="1" stop-color="#F7DD43" stop-opacity="0"/>
</linearGradient>
<linearGradient id="paint79_linear_175_198" x1="938.5" y1="-26" x2="938.5" y2="272.818" gradientUnits="userSpaceOnUse">
<stop stop-color="#F7DD43"/>
<stop offset="1" stop-color="#F7DD43" stop-opacity="0"/>
</linearGradient>
<linearGradient id="paint80_linear_175_198" x1="938.5" y1="-26" x2="938.5" y2="272.818" gradientUnits="userSpaceOnUse">
<stop stop-color="#F7DD43"/>
<stop offset="1" stop-color="#F7DD43" stop-opacity="0"/>
</linearGradient>
<linearGradient id="paint81_linear_175_198" x1="938.5" y1="-26" x2="938.5" y2="272.818" gradientUnits="userSpaceOnUse">
<stop stop-color="#F7DD43"/>
<stop offset="1" stop-color="#F7DD43" stop-opacity="0"/>
</linearGradient>
<linearGradient id="paint82_linear_175_198" x1="938.5" y1="-26" x2="938.5" y2="272.818" gradientUnits="userSpaceOnUse">
<stop stop-color="#F7DD43"/>
<stop offset="1" stop-color="#F7DD43" stop-opacity="0"/>
</linearGradient>
<linearGradient id="paint83_linear_175_198" x1="938.5" y1="-26" x2="938.5" y2="272.818" gradientUnits="userSpaceOnUse">
<stop stop-color="#F7DD43"/>
<stop offset="1" stop-color="#F7DD43" stop-opacity="0"/>
</linearGradient>
<linearGradient id="paint84_linear_175_198" x1="938.5" y1="-26" x2="938.5" y2="272.818" gradientUnits="userSpaceOnUse">
<stop stop-color="#F7DD43"/>
<stop offset="1" stop-color="#F7DD43" stop-opacity="0"/>
</linearGradient>
<linearGradient id="paint85_linear_175_198" x1="938.5" y1="-26" x2="938.5" y2="272.818" gradientUnits="userSpaceOnUse">
<stop stop-color="#F7DD43"/>
<stop offset="1" stop-color="#F7DD43" stop-opacity="0"/>
</linearGradient>
<linearGradient id="paint86_linear_175_198" x1="938.5" y1="-26" x2="938.5" y2="272.818" gradientUnits="userSpaceOnUse">
<stop stop-color="#F7DD43"/>
<stop offset="1" stop-color="#F7DD43" stop-opacity="0"/>
</linearGradient>
<linearGradient id="paint87_linear_175_198" x1="938.5" y1="-26" x2="938.5" y2="272.818" gradientUnits="userSpaceOnUse">
<stop stop-color="#F7DD43"/>
<stop offset="1" stop-color="#F7DD43" stop-opacity="0"/>
</linearGradient>
<linearGradient id="paint88_linear_175_198" x1="938.5" y1="-26" x2="938.5" y2="272.818" gradientUnits="userSpaceOnUse">
<stop stop-color="#F7DD43"/>
<stop offset="1" stop-color="#F7DD43" stop-opacity="0"/>
</linearGradient>
<linearGradient id="paint89_linear_175_198" x1="938.5" y1="-26" x2="938.5" y2="272.818" gradientUnits="userSpaceOnUse">
<stop stop-color="#F7DD43"/>
<stop offset="1" stop-color="#F7DD43" stop-opacity="0"/>
</linearGradient>
<linearGradient id="paint90_linear_175_198" x1="938.5" y1="-26" x2="938.5" y2="272.818" gradientUnits="userSpaceOnUse">
<stop stop-color="#F7DD43"/>
<stop offset="1" stop-color="#F7DD43" stop-opacity="0"/>
</linearGradient>
<linearGradient id="paint91_linear_175_198" x1="938.5" y1="-26" x2="938.5" y2="272.818" gradientUnits="userSpaceOnUse">
<stop stop-color="#F7DD43"/>
<stop offset="1" stop-color="#F7DD43" stop-opacity="0"/>
</linearGradient>
<linearGradient id="paint92_linear_175_198" x1="938.5" y1="-26" x2="938.5" y2="272.818" gradientUnits="userSpaceOnUse">
<stop stop-color="#F7DD43"/>
<stop offset="1" stop-color="#F7DD43" stop-opacity="0"/>
</linearGradient>
<linearGradient id="paint93_linear_175_198" x1="938.5" y1="-26" x2="938.5" y2="272.818" gradientUnits="userSpaceOnUse">
<stop stop-color="#F7DD43"/>
<stop offset="1" stop-color="#F7DD43" stop-opacity="0"/>
</linearGradient>
</defs>
</svg>
